<svg width="32" height="32" viewBox="0 0 32 32" fill="none" xmlns="http://www.w3.org/2000/svg">
<path d="M29.3334 16C29.3334 8.636 23.3641 2.66667 16.0001 2.66667C8.63608 2.66667 2.66675 8.636 2.66675 16C2.66675 23.364 8.63608 29.3333 16.0001 29.3333C23.3641 29.3333 29.3334 23.364 29.3334 16ZM10.0001 11.6587C10.4627 11.1493 11.2201 10.6667 12.3334 10.6667C13.8694 10.6667 14.8587 11.7227 15.2067 12.8813C15.5441 14.0107 15.3401 15.408 14.3801 16.372C14.0471 16.6921 13.6939 16.9905 13.3227 17.2653L13.2694 17.3067C12.8961 17.5947 12.5627 17.856 12.2694 18.1467C11.9294 18.488 11.6507 18.86 11.4894 19.3333H14.3334C14.5986 19.3333 14.853 19.4387 15.0405 19.6262C15.2281 19.8138 15.3334 20.0681 15.3334 20.3333C15.3334 20.5985 15.2281 20.8529 15.0405 21.0404C14.853 21.228 14.5986 21.3333 14.3334 21.3333H10.3334C10.0682 21.3333 9.81384 21.228 9.62631 21.0404C9.43877 20.8529 9.33341 20.5985 9.33341 20.3333C9.33341 18.6707 10.0321 17.556 10.8587 16.732C11.2534 16.3373 11.6827 16.0053 12.0454 15.724L12.0494 15.7213C12.4307 15.4267 12.7267 15.1973 12.9627 14.9613C13.3254 14.596 13.4521 13.9947 13.2907 13.4547C13.1374 12.9467 12.7974 12.6667 12.3334 12.6667C11.8627 12.6667 11.6201 12.8493 11.4801 13.004C11.3982 13.0944 11.3315 13.1975 11.2827 13.3093V13.3133C11.2011 13.5658 11.0224 13.7755 10.7861 13.8963C10.5498 14.0171 10.2752 14.039 10.0227 13.9573C9.77026 13.8756 9.56057 13.697 9.43979 13.4607C9.31902 13.2244 9.29706 12.9498 9.37875 12.6973L9.42541 12.5693C9.56241 12.2349 9.75773 11.9268 10.0001 11.6587ZM17.6667 10.6667C17.932 10.6667 18.1863 10.772 18.3739 10.9596C18.5614 11.1471 18.6667 11.4014 18.6667 11.6667V15.3333H20.6667V11.6667C20.6667 11.4014 20.7721 11.1471 20.9596 10.9596C21.1472 10.772 21.4015 10.6667 21.6667 10.6667C21.932 10.6667 22.1863 10.772 22.3739 10.9596C22.5614 11.1471 22.6667 11.4014 22.6667 11.6667V20.2933C22.6667 20.5585 22.5614 20.8129 22.3739 21.0004C22.1863 21.188 21.932 21.2933 21.6667 21.2933C21.4015 21.2933 21.1472 21.188 20.9596 21.0004C20.7721 20.8129 20.6667 20.5585 20.6667 20.2933V17.3333H17.6667C17.4015 17.3333 17.1472 17.228 16.9596 17.0404C16.7721 16.8529 16.6667 16.5985 16.6667 16.3333V11.6667C16.6667 11.4014 16.7721 11.1471 16.9596 10.9596C17.1472 10.772 17.4015 10.6667 17.6667 10.6667Z" fill="#034792"/>
</svg>
