<svg width="32" height="32" viewBox="0 0 32 32" fill="none" xmlns="http://www.w3.org/2000/svg">
<path d="M2.66675 5C2.66675 3.712 3.71208 2.66667 5.00008 2.66667H27.0001C27.6189 2.66667 28.2124 2.9125 28.65 3.35009C29.0876 3.78767 29.3334 4.38116 29.3334 5C29.3334 5.61884 29.0876 6.21233 28.65 6.64992C28.2124 7.0875 27.6189 7.33333 27.0001 7.33333H5.00008C4.38124 7.33333 3.78775 7.0875 3.35017 6.64992C2.91258 6.21233 2.66675 5.61884 2.66675 5ZM16.0001 23.3333C17.4146 23.3333 18.7711 22.7714 19.7713 21.7712C20.7715 20.771 21.3334 19.4145 21.3334 18C21.3334 16.5855 20.7715 15.229 19.7713 14.2288C18.7711 13.2286 17.4146 12.6667 16.0001 12.6667C14.5856 12.6667 13.229 13.2286 12.2288 14.2288C11.2287 15.229 10.6667 16.5855 10.6667 18C10.6667 19.4145 11.2287 20.771 12.2288 21.7712C13.229 22.7714 14.5856 23.3333 16.0001 23.3333ZM19.3334 18C19.3334 18.8841 18.9822 19.7319 18.3571 20.357C17.732 20.9821 16.8841 21.3333 16.0001 21.3333C15.116 21.3333 14.2682 20.9821 13.6431 20.357C13.0179 19.7319 12.6667 18.8841 12.6667 18C12.6667 17.1159 13.0179 16.2681 13.6431 15.643C14.2682 15.0179 15.116 14.6667 16.0001 14.6667C16.8841 14.6667 17.732 15.0179 18.3571 15.643C18.9822 16.2681 19.3334 17.1159 19.3334 18ZM4.00008 9.33333H28.0001V17.3333C28.0001 18.9092 27.6897 20.4696 27.0866 21.9255C26.4836 23.3814 25.5997 24.7043 24.4854 25.8186C23.3711 26.9329 22.0482 27.8168 20.5923 28.4199C19.1364 29.0229 17.5759 29.3333 16.0001 29.3333C14.4242 29.3333 12.8638 29.0229 11.4079 28.4199C9.95197 27.8168 8.6291 26.9329 7.5148 25.8186C6.4005 24.7043 5.51658 23.3814 4.91353 21.9255C4.31047 20.4696 4.00008 18.9092 4.00008 17.3333V9.33333ZM16.0001 25.3333C17.945 25.3333 19.8103 24.5607 21.1855 23.1855C22.5608 21.8102 23.3334 19.9449 23.3334 18C23.3334 16.0551 22.5608 14.1898 21.1855 12.8146C19.8103 11.4393 17.945 10.6667 16.0001 10.6667C14.0552 10.6667 12.1899 11.4393 10.8146 12.8146C9.43936 14.1898 8.66675 16.0551 8.66675 18C8.66675 19.9449 9.43936 21.8102 10.8146 23.1855C12.1899 24.5607 14.0552 25.3333 16.0001 25.3333Z" fill="#034792"/>
</svg>
