<svg width="32" height="32" viewBox="0 0 32 32" fill="none" xmlns="http://www.w3.org/2000/svg">
<path d="M20.7173 25.332L20.3306 27.0107C20.1863 27.6327 19.8473 28.1925 19.3629 28.6085C18.8785 29.0246 18.2739 29.2752 17.6373 29.324L17.4066 29.3333H14.5919C13.953 29.3333 13.3309 29.1294 12.816 28.7512C12.3011 28.373 11.9203 27.8403 11.7293 27.2307L11.6679 27.008L11.2813 25.332H20.7173ZM15.9999 2.668C18.5637 2.668 21.0224 3.68645 22.8353 5.4993C24.6481 7.31215 25.6666 9.77091 25.6666 12.3347C25.6666 15.1827 24.4186 17.792 21.9799 20.1213C21.9327 20.1664 21.8998 20.2244 21.8853 20.288L21.1813 23.332H16.9999V14.3333C16.9999 14.0681 16.8946 13.8138 16.707 13.6262C16.5195 13.4387 16.2651 13.3333 15.9999 13.3333C15.7347 13.3333 15.4803 13.4387 15.2928 13.6262C15.1053 13.8138 14.9999 14.0681 14.9999 14.3333V23.3333H10.8186L10.1173 20.2893C10.1025 20.2262 10.0696 20.1687 10.0226 20.124C7.58259 17.792 6.33325 15.1827 6.33325 12.3333C6.33361 9.7698 7.35221 7.31139 9.16502 5.49883C10.9778 3.68627 13.4364 2.668 15.9999 2.668ZM14.9999 9.00133V11.0013C14.9999 11.2665 15.1053 11.5209 15.2928 11.7084C15.4803 11.896 15.7347 12.0013 15.9999 12.0013C16.2651 12.0013 16.5195 11.896 16.707 11.7084C16.8946 11.5209 16.9999 11.2665 16.9999 11.0013V9.00133C16.9999 8.73612 16.8946 8.48176 16.707 8.29423C16.5195 8.10669 16.2651 8.00133 15.9999 8.00133C15.7347 8.00133 15.4803 8.10669 15.2928 8.29423C15.1053 8.48176 14.9999 8.73612 14.9999 9.00133ZM21.7066 10.9547C21.5191 10.7674 21.2649 10.6622 20.9999 10.6622C20.7349 10.6622 20.4808 10.7674 20.2933 10.9547L18.8786 12.368C18.783 12.4602 18.7068 12.5705 18.6543 12.6925C18.6019 12.8145 18.5742 12.9457 18.573 13.0785C18.5718 13.2112 18.597 13.3429 18.6473 13.4658C18.6975 13.5888 18.7717 13.7004 18.8655 13.7944C18.9594 13.8883 19.071 13.9626 19.1939 14.013C19.3167 14.0633 19.4484 14.0887 19.5812 14.0876C19.714 14.0865 19.8452 14.059 19.9672 14.0066C20.0892 13.9543 20.1996 13.8781 20.2919 13.7827L21.7066 12.3693C21.8939 12.1818 21.999 11.9277 21.999 11.6627C21.999 11.3977 21.8939 11.1435 21.7066 10.956V10.9547ZM11.7066 10.9547C11.517 10.778 11.2663 10.6819 11.0072 10.6864C10.7482 10.691 10.501 10.796 10.3178 10.9792C10.1345 11.1624 10.0296 11.4096 10.025 11.6686C10.0204 11.9277 10.1166 12.1784 10.2933 12.368L11.7066 13.7827C11.7988 13.8782 11.9091 13.9545 12.0311 14.0069C12.1531 14.0594 12.2843 14.087 12.417 14.0882C12.5498 14.0895 12.6815 14.0642 12.8044 14.014C12.9273 13.9638 13.039 13.8896 13.133 13.7957C13.2269 13.7019 13.3012 13.5903 13.3516 13.4674C13.4019 13.3445 13.4273 13.2129 13.4262 13.0801C13.4251 12.9473 13.3975 12.8161 13.3452 12.694C13.2928 12.572 13.2167 12.4616 13.1213 12.3693L11.7079 10.956L11.7066 10.9547Z" fill="#034792"/>
</svg>
