<svg width="32" height="32" viewBox="0 0 32 32" fill="none" xmlns="http://www.w3.org/2000/svg">
<path d="M2.66675 10.3333C2.66675 9.36087 3.05306 8.42824 3.74069 7.74061C4.42832 7.05298 5.36095 6.66667 6.33341 6.66667H25.6667C26.6392 6.66667 27.5718 7.05298 28.2595 7.74061C28.9471 8.42824 29.3334 9.36087 29.3334 10.3333V12.6667H2.66675V10.3333ZM2.66675 14.6667H29.3334V21.6667C29.3334 22.6391 28.9471 23.5718 28.2595 24.2594C27.5718 24.947 26.6392 25.3333 25.6667 25.3333H6.33341C5.36095 25.3333 4.42832 24.947 3.74069 24.2594C3.05306 23.5718 2.66675 22.6391 2.66675 21.6667V14.6667ZM21.0001 19.3333C20.7349 19.3333 20.4805 19.4387 20.293 19.6262C20.1054 19.8138 20.0001 20.0681 20.0001 20.3333C20.0001 20.5986 20.1054 20.8529 20.293 21.0404C20.4805 21.228 20.7349 21.3333 21.0001 21.3333H24.3334C24.5986 21.3333 24.853 21.228 25.0405 21.0404C25.2281 20.8529 25.3334 20.5986 25.3334 20.3333C25.3334 20.0681 25.2281 19.8138 25.0405 19.6262C24.853 19.4387 24.5986 19.3333 24.3334 19.3333H21.0001Z" fill="#034792"/>
</svg>
