<svg width="32" height="32" viewBox="0 0 32 32" fill="none" xmlns="http://www.w3.org/2000/svg">
<path d="M13.3334 2.66667C14.7479 2.66667 16.1045 3.22857 17.1047 4.22876C18.1048 5.22896 18.6667 6.58551 18.6667 8V10.6667H22.0001C22.5305 10.6667 23.0392 10.8774 23.4143 11.2525C23.7894 11.6275 24.0001 12.1362 24.0001 12.6667V14.6667C23.5747 14.6667 23.1507 14.8133 22.8054 15.1053L22.6627 15.2387C21.5801 16.3653 20.4547 16.8893 19.2001 16.8893C18.1561 16.8893 17.3334 17.7467 17.3334 18.7773V22.112C17.3334 25.2773 18.5654 27.7387 20.9067 29.336L4.66675 29.3333C4.13631 29.3333 3.62761 29.1226 3.25253 28.7475C2.87746 28.3725 2.66675 27.8638 2.66675 27.3333V12.6667C2.66675 12.1362 2.87746 11.6275 3.25253 11.2525C3.62761 10.8774 4.13631 10.6667 4.66675 10.6667H8.00008V8C8.00008 6.58551 8.56198 5.22896 9.56218 4.22876C10.5624 3.22857 11.9189 2.66667 13.3334 2.66667ZM24.3787 16.1627C25.7014 17.544 27.1667 18.2227 28.8001 18.2227C29.0574 18.2227 29.2734 18.4133 29.3227 18.6653L29.3334 18.7773V22.112C29.3334 25.688 27.5827 28.12 24.1694 29.3053C24.0602 29.3433 23.9413 29.3433 23.8321 29.3053C20.5307 28.1587 18.7854 25.8493 18.6721 22.4653L18.6667 22.1133V18.78C18.6667 18.4733 18.9067 18.224 19.2001 18.224C20.8307 18.224 22.2974 17.544 23.6241 16.164C23.6726 16.1126 23.731 16.0716 23.7959 16.0436C23.8608 16.0156 23.9307 16.0012 24.0014 16.0012C24.0721 16.0012 24.142 16.0156 24.2069 16.0436C24.2718 16.0716 24.3303 16.1126 24.3787 16.164V16.1627ZM13.3334 18C12.803 18 12.2943 18.2107 11.9192 18.5858C11.5441 18.9609 11.3334 19.4696 11.3334 20C11.3334 20.5304 11.5441 21.0391 11.9192 21.4142C12.2943 21.7893 12.803 22 13.3334 22C13.8638 22 14.3726 21.7893 14.7476 21.4142C15.1227 21.0391 15.3334 20.5304 15.3334 20C15.3334 19.4696 15.1227 18.9609 14.7476 18.5858C14.3726 18.2107 13.8638 18 13.3334 18ZM13.3334 5.33333C12.6262 5.33333 11.9479 5.61429 11.4478 6.11438C10.9477 6.61448 10.6667 7.29276 10.6667 8V10.6667H16.0001V8C16.0001 7.29276 15.7191 6.61448 15.219 6.11438C14.7189 5.61429 14.0407 5.33333 13.3334 5.33333Z" fill="#034792"/>
</svg>
