<svg width="32" height="32" viewBox="0 0 32 32" fill="none" xmlns="http://www.w3.org/2000/svg">
<path d="M6.66675 9.33333H25.3334C26.3537 9.33328 27.3354 9.7231 28.0778 10.423C28.8201 11.123 29.2669 12.0801 29.3267 13.0987L29.3334 13.3333V18.6667C29.3335 19.6869 28.9436 20.6687 28.2437 21.411C27.5438 22.1533 26.5866 22.6001 25.5681 22.66L25.3334 22.6667H6.66675C5.64647 22.6667 4.66473 22.2769 3.9224 21.577C3.18007 20.877 2.73327 19.9199 2.67341 18.9013L2.66675 18.6667V13.3333C2.66669 12.3131 3.05651 11.3313 3.75646 10.589C4.4564 9.84666 5.41356 9.39986 6.43208 9.34L6.66675 9.33333ZM24.0001 13.3333C23.6465 13.3333 23.3073 13.4738 23.0573 13.7239C22.8072 13.9739 22.6667 14.313 22.6667 14.6667C22.6667 15.0203 22.8072 15.3594 23.0573 15.6095C23.3073 15.8595 23.6465 16 24.0001 16C24.3537 16 24.6928 15.8595 24.9429 15.6095C25.1929 15.3594 25.3334 15.0203 25.3334 14.6667C25.3334 14.313 25.1929 13.9739 24.9429 13.7239C24.6928 13.4738 24.3537 13.3333 24.0001 13.3333ZM18.6667 13.3333C18.3131 13.3333 17.974 13.4738 17.7239 13.7239C17.4739 13.9739 17.3334 14.313 17.3334 14.6667C17.3334 15.0203 17.4739 15.3594 17.7239 15.6095C17.974 15.8595 18.3131 16 18.6667 16C19.0204 16 19.3595 15.8595 19.6096 15.6095C19.8596 15.3594 20.0001 15.0203 20.0001 14.6667C20.0001 14.313 19.8596 13.9739 19.6096 13.7239C19.3595 13.4738 19.0204 13.3333 18.6667 13.3333Z" fill="#034792"/>
</svg>
