<svg width="21" height="29" viewBox="0 0 21 29" fill="none" xmlns="http://www.w3.org/2000/svg">
<path d="M11.0312 0.223737H0.626762V28.9002H6.39883V18.937H10.4797C11.9871 18.937 13.3474 18.7531 14.5606 18.3855C15.8841 18.0179 16.9871 17.4296 17.943 16.6943C18.8988 15.8855 19.6709 14.8561 20.1856 13.6796C20.7003 12.5031 20.9577 11.1061 20.9577 9.59874C20.9577 6.84138 20.1488 4.52521 18.568 2.90756C16.84 1.14285 14.3033 0.223737 11.0312 0.223737ZM10.1856 13.459H6.39883V5.70168H10.7003C12.1341 5.70168 13.2738 6.03256 14.0091 6.69433C14.7077 7.31933 15.0753 8.27521 15.0753 9.52521C15.0753 10.7384 14.7077 11.6943 14.0459 12.3193C13.2003 13.0914 11.9135 13.459 10.1856 13.459Z" fill="#3859B6"/>
</svg>
